# xmcd
#
# Track frame offsets:
#	150
#	19212
#	31716
#	42996
#	59871
#	72500
#	84161
#	101510
#	121563
#	136145
#	146824
#	160996
#
# Disc length: 2357 seconds
# Revision: 2
# Processed by: cddbd v1.5.2PL0 Copyright (c) Steve Scherf et al.
# Submitted via: dBpowerAMP V12.0
#
DISCID=a009330c
DTITLE=Georgette Jones - Strong Enough To Cry
DYEAR=2012
DGENRE=Country
TTITLE0=Strong Enough To Cry
TTITLE1=Don't Come Back Till You Love Me
TTITLE2=Run Woman Run (Duet with Amber Didgy)
TTITLE3=Making Love All Wrong
TTITLE4=I Just Don't Give A Damn
TTITLE5=A Day Late, A Diamond Short
TTITLE6=Rainbow Colored Words
TTITLE7=Broken, Bitter or Better
TTITLE8=I'm Not Even Close
TTITLE9=Wayss To Make You Talk
TTITLE10=Where Were You
TTITLE11=I Don't Love You
EXTD=
EXTT0=
EXTT1=
EXTT2=
EXTT3=
EXTT4=
EXTT5=
EXTT6=
EXTT7=
EXTT8=
EXTT9=
EXTT10=
EXTT11=
PLAYORDER=
